<?xml version="1.0" encoding="UTF-8"?>
<svg width="224px" height="51px" viewBox="0 0 224 51" version="1.1" xmlns="http://www.w3.org/2000/svg" xmlns:xlink="http://www.w3.org/1999/xlink">
    <title>automatebuddy-colored</title>
    <defs>
        <filter id="filter-1">
            <feColorMatrix in="SourceGraphic" type="matrix" values="0 0 0 0 0.870588 0 0 0 0 0.800000 0 0 0 0 0.486275 0 0 0 1.000000 0"></feColorMatrix>
        </filter>
        <path d="M16.5007484,11.6434183 C16.2389019,11.8268133 15.8970642,11.8757717 15.5889515,11.773974 L0.367164198,7.85226228 C0.259993673,7.81683709 0.169230258,7.74757885 0.110380738,7.65632913 C-0.0299535469,7.43860352 0.0441061799,7.15530149 0.275807628,7.02345211 L9.98508876,0.636477095 C10.7738294,-0.248360647 11.7348475,0.0601366141 11.878656,0.115463599 L25.0312495,5.04893144 C25.113677,5.0806748 25.1853641,5.13291701 25.2386104,5.19998605 C25.4005313,5.40397943 25.3557481,5.69265494 25.1385895,5.84480415 L16.5007484,11.6434183 Z" id="path-2"></path>
        <path d="M0.150833822,9.45095363 C-0.212591182,7.06196335 1.06401797,5.58033536 3.16534097,4.26062303 L9.53264912,0.0685825609 L11.5729489,17.3133288 C11.76153,18.8517115 11.6681496,20.3097064 10.3314716,21.1727967 L3.31543318,27.2937657 C3.24899368,27.336675 3.17341527,27.3647611 3.09424617,27.3759064 C2.80115252,27.4171439 2.07848531,26.8621908 2.03559383,26.5802153 L0.150833822,9.45095363 Z" id="path-4"></path>
        <path d="M2.13114312,3.83647074 C1.18906791,3.8356702 0.424627453,2.97020291 0.423729364,1.90335522 C0.422832857,0.836507534 1.18581856,-0.0276627 2.12789377,-0.0268632678 C3.06998369,-0.0260627131 3.83440943,0.839404561 3.83530752,1.90625225 C3.83620403,2.97309994 3.07323304,3.83727018 2.13114312,3.83647074 Z" id="path-6"></path>
        <path d="M2.04511819,3.7653567 C1.09817104,3.76692508 0.331963149,2.92343901 0.333721645,1.88133692 C0.335486204,0.839234834 1.10455021,-0.00692431574 2.05149735,-0.00849707433 C2.9984297,-0.0100654297 3.76465218,0.833547355 3.76289368,1.87564944 C3.76112912,2.91775153 2.99205054,3.76378396 2.04511819,3.7653567 Z" id="path-8"></path>
    </defs>
    <g id="automatebuddy-colored" stroke="none" stroke-width="1" fill="none" fill-rule="evenodd">
        <g id="Group-5" transform="translate(56.100001, 19.000000)" fill="#444444" fill-rule="nonzero">
            <path d="M102.769906,16.2875367 C103.19752,16.2875367 103.642952,16.2198311 104.1062,16.08442 C104.569449,15.9490089 104.993499,15.7209481 105.378352,15.4002375 C105.763204,15.079527 106.080352,14.6554764 106.329793,14.1280858 C106.579235,13.6006951 106.703955,12.9450203 106.703955,12.1610612 C106.703955,11.5338939 106.618433,10.9886861 106.447387,10.5254375 C106.276341,10.062189 106.058971,9.67733634 105.795276,9.37087961 C105.53158,9.06442289 105.242941,8.82567172 104.929357,8.6546261 C104.615773,8.48358049 104.323571,8.36955008 104.052748,8.31253487 L104.052748,8.31253487 L104.052748,8.26977347 C104.323571,8.16999686 104.587266,8.0310223 104.843834,7.85284978 C105.100403,7.67467727 105.328464,7.44661645 105.528017,7.16866733 C105.72757,6.8907182 105.887925,6.56288077 106.009083,6.18515504 C106.13024,5.80742931 106.190818,5.36199802 106.190818,4.84886118 C106.190818,4.12191732 106.069661,3.51969421 105.827347,3.04219187 C105.585032,2.56468953 105.275012,2.1869638 104.897286,1.90901468 C104.51956,1.63106555 104.102637,1.43507579 103.646515,1.32104538 C103.190393,1.20701497 102.748525,1.14999976 102.320911,1.14999976 L102.320911,1.14999976 L98.8999992,1.14999976 L98.8999992,16.2875367 L102.769906,16.2875367 Z M102.214008,7.77801733 L100.311125,7.77801733 L100.311125,2.41146117 L102.171247,2.41146117 C102.499084,2.41146117 102.819794,2.45422257 103.133378,2.53974538 C103.446962,2.62526819 103.728474,2.77136965 103.977916,2.97804977 C104.227357,3.18472989 104.426911,3.45911556 104.576575,3.80120679 C104.72624,4.14329802 104.801073,4.56378515 104.801073,5.0626682 C104.801073,5.54729744 104.722677,5.96065767 104.565885,6.3027489 C104.409093,6.64484013 104.20954,6.92635271 103.967225,7.14728662 C103.724911,7.36822054 103.450525,7.52857581 103.144068,7.62835242 C102.837612,7.72812902 102.527592,7.77801733 102.214008,7.77801733 L102.214008,7.77801733 Z M102.427815,15.0260752 L100.311125,15.0260752 L100.311125,8.97533663 L102.427815,8.97533663 C102.741399,8.97533663 103.065673,9.03235184 103.400637,9.14638224 C103.735601,9.26041265 104.038495,9.43858517 104.309317,9.68089979 C104.580139,9.92321441 104.801073,10.2403615 104.972118,10.632341 C105.143164,11.0243206 105.228687,11.5053863 105.228687,12.0755384 C105.228687,12.5886752 105.157418,13.0305431 105.01488,13.4011419 C104.872342,13.7717407 104.672789,14.0781975 104.41622,14.3205121 C104.159652,14.5628267 103.860322,14.7409992 103.518231,14.8550296 C103.17614,14.96906 102.812668,15.0260752 102.427815,15.0260752 L102.427815,15.0260752 Z M113.417496,16.6510086 C114.229962,16.6510086 114.914145,16.5049071 115.470043,16.2127042 C116.025941,15.9205013 116.471373,15.5178314 116.806337,15.0046945 C117.141301,14.4915577 117.383616,13.8893346 117.533281,13.1980252 C117.682946,12.5067159 117.757778,11.7690817 117.757778,10.9851226 L117.757778,10.9851226 L117.757778,1.14999976 L116.261129,1.14999976 L116.261129,10.7926963 C116.261129,11.3628483 116.221931,11.9151831 116.143535,12.4497007 C116.065139,12.9842182 115.922601,13.4617206 115.715921,13.8822077 C115.509241,14.3026948 115.220602,14.6412226 114.850003,14.897791 C114.479404,15.1543595 114.009028,15.2826437 113.438876,15.2826437 C112.854471,15.2826437 112.380532,15.1543595 112.01706,14.897791 C111.653588,14.6412226 111.368512,14.3026948 111.161832,13.8822077 C110.955152,13.4617206 110.812614,12.9806548 110.734218,12.4390103 C110.655822,11.8973659 110.616624,11.3485945 110.616624,10.7926963 L110.616624,10.7926963 L110.616624,1.14999976 L109.119975,1.14999976 L109.119975,10.9851226 C109.119975,11.7690817 109.191244,12.5067159 109.333782,13.1980252 C109.47632,13.8893346 109.715071,14.4915577 110.050035,15.0046945 C110.384999,15.5178314 110.826867,15.9205013 111.375639,16.2127042 C111.92441,16.5049071 112.605029,16.6510086 113.417496,16.6510086 Z M124.300273,16.2875367 C125.126993,16.2875367 125.878881,16.1271814 126.555937,15.8064709 C127.232993,15.4857603 127.813835,15.008258 128.298464,14.3739638 C128.783093,13.7396697 129.153692,12.9521472 129.410261,12.0113963 C129.666829,11.0706454 129.795113,9.98022962 129.795113,8.74014891 C129.795113,7.5000682 129.666829,6.40608896 129.410261,5.45821118 C129.153692,4.5103334 128.786657,3.71568398 128.309155,3.07426293 C127.831652,2.43284187 127.254373,1.95177608 126.577318,1.63106555 C125.900262,1.31035503 125.148374,1.14999976 124.321654,1.14999976 L124.321654,1.14999976 L121.050406,1.14999976 L121.050406,16.2875367 L124.300273,16.2875367 Z M124.278892,14.9833138 L122.525675,14.9833138 L122.525675,2.45422257 L124.278892,2.45422257 C124.849044,2.45422257 125.379998,2.58250678 125.871755,2.83907521 C126.363511,3.09564363 126.791125,3.48049626 127.154597,3.9936331 C127.518069,4.50676995 127.803145,5.15888135 128.009825,5.94996732 C128.216505,6.74105329 128.319845,7.67111382 128.319845,8.74014891 C128.319845,9.7949302 128.216505,10.7143004 128.009825,11.4982594 C127.803145,12.2822185 127.518069,12.9307665 127.154597,13.4439033 C126.791125,13.9570402 126.363511,14.3418928 125.871755,14.5984612 C125.379998,14.8550296 124.849044,14.9833138 124.278892,14.9833138 L124.278892,14.9833138 Z M135.867233,16.2875367 C136.693953,16.2875367 137.445841,16.1271814 138.122897,15.8064709 C138.799952,15.4857603 139.380795,15.008258 139.865424,14.3739638 C140.350053,13.7396697 140.720652,12.9521472 140.97722,12.0113963 C141.233789,11.0706454 141.362073,9.98022962 141.362073,8.74014891 C141.362073,7.5000682 141.233789,6.40608896 140.97722,5.45821118 C140.720652,4.5103334 140.353617,3.71568398 139.876114,3.07426293 C139.398612,2.43284187 138.821333,1.95177608 138.144277,1.63106555 C137.467222,1.31035503 136.715334,1.14999976 135.888613,1.14999976 L135.888613,1.14999976 L132.617366,1.14999976 L132.617366,16.2875367 L135.867233,16.2875367 Z M135.845852,14.9833138 L134.092634,14.9833138 L134.092634,2.45422257 L135.845852,2.45422257 C136.416004,2.45422257 136.946958,2.58250678 137.438714,2.83907521 C137.93047,3.09564363 138.358084,3.48049626 138.721556,3.9936331 C139.085028,4.50676995 139.370104,5.15888135 139.576784,5.94996732 C139.783465,6.74105329 139.886805,7.67111382 139.886805,8.74014891 C139.886805,9.7949302 139.783465,10.7143004 139.576784,11.4982594 C139.370104,12.2822185 139.085028,12.9307665 138.721556,13.4439033 C138.358084,13.9570402 137.93047,14.3418928 137.438714,14.5984612 C136.946958,14.8550296 136.416004,14.9833138 135.845852,14.9833138 L135.845852,14.9833138 Z M147.66938,16.2875367 L147.66938,10.0657524 L151.475145,1.14999976 L149.871592,1.14999976 L146.942436,8.52634189 L144.077422,1.14999976 L142.452489,1.14999976 L146.215492,10.0657524 L146.215492,16.2875367 L147.66938,16.2875367 Z" id="BUDDY"></path>
            <path d="M2.60844562,16.2774426 L3.37815089,13.0703373 L7.35496143,13.0703373 L8.10328599,16.2774426 L10.7758737,16.2774426 L7.0770123,1.13990571 L3.80576493,1.13990571 L0.0427614037,16.2774426 L2.60844562,16.2774426 Z M7.0342509,11.0605514 L3.69886142,11.0605514 L5.34517546,3.55592501 L5.43069826,3.55592501 L7.0342509,11.0605514 Z M17.6370099,16.6622952 C18.5064918,16.6622952 19.244126,16.5126303 19.8499125,16.2133005 C20.4556991,15.9139707 20.9510187,15.5041739 21.3358713,14.9839101 C21.7207239,14.4636464 21.9986731,13.8542964 22.1697187,13.1558601 C22.3407643,12.4574239 22.4262871,11.7090993 22.4262871,10.9108864 L22.4262871,10.9108864 L22.4262871,1.13990571 L19.8819836,1.13990571 L19.8819836,10.6756987 C19.8819836,11.1460742 19.8499125,11.5986324 19.7857704,12.0333733 C19.7216283,12.4681142 19.6075979,12.8494034 19.4436792,13.1772408 C19.2797605,13.5050783 19.0552631,13.7652101 18.7701871,13.9576365 C18.4851111,14.1500628 18.1216391,14.2462759 17.6797713,14.2462759 C17.2379034,14.2462759 16.8744315,14.1500628 16.5893555,13.9576365 C16.3042795,13.7652101 16.0797821,13.5050783 15.9158634,13.1772408 C15.7519447,12.8494034 15.6379143,12.4681142 15.5737722,12.0333733 C15.5096301,11.5986324 15.477559,11.1460742 15.477559,10.6756987 L15.477559,10.6756987 L15.477559,1.13990571 L12.9118748,1.13990571 L12.9118748,10.9108864 C12.9118748,11.7090993 12.9938341,12.4574239 13.1577529,13.1558601 C13.3216716,13.8542964 13.5924938,14.4636464 13.9702195,14.9839101 C14.3479453,15.5041739 14.8361379,15.9139707 15.4347976,16.2133005 C16.0334572,16.5126303 16.767528,16.6622952 17.6370099,16.6622952 Z M30.0998899,16.2774426 L30.0998899,3.32073729 L32.9435233,3.32073729 L32.9435233,1.13990571 L24.7333338,1.13990571 L24.7333338,3.32073729 L27.5769671,3.32073729 L27.5769671,16.2774426 L30.0998899,16.2774426 Z M40.0184665,16.6622952 C40.8594407,16.6622952 41.6184556,16.4698689 42.2955112,16.0850163 C42.9725668,15.7001637 43.5462823,15.1585192 44.0166577,14.4600829 C44.4870331,13.7616467 44.8469416,12.9242359 45.0963831,11.9478505 C45.3458247,10.9714651 45.4705454,9.88461275 45.4705454,8.68729345 C45.4705454,7.48997415 45.3458247,6.40668526 45.0963831,5.43742677 C44.8469416,4.46816829 44.4870331,3.63432092 44.0166577,2.93588466 C43.5462823,2.2374484 42.9725668,1.6993674 42.2955112,1.32164167 C41.6184556,0.94391594 40.8594407,0.755053074 40.0184665,0.755053074 C39.1632384,0.755053074 38.3970966,0.94391594 37.720041,1.32164167 C37.0429854,1.6993674 36.4692699,2.2374484 35.9988945,2.93588466 C35.5285191,3.63432092 35.172174,4.46816829 34.9298594,5.43742677 C34.6875448,6.40668526 34.5663875,7.48997415 34.5663875,8.68729345 C34.5663875,9.88461275 34.6911082,10.9714651 34.9405498,11.9478505 C35.1899913,12.9242359 35.5498998,13.7616467 36.0202752,14.4600829 C36.4906506,15.1585192 37.0608027,15.7001637 37.7307314,16.0850163 C38.40066,16.4698689 39.1632384,16.6622952 40.0184665,16.6622952 Z M40.0184665,14.2248952 C39.548091,14.2248952 39.1382942,14.0823572 38.7890761,13.7972812 C38.439858,13.5122052 38.147655,13.1202256 37.9124673,12.6213426 C37.6772796,12.1224595 37.5026705,11.5344902 37.3886401,10.8574347 C37.2746097,10.1803791 37.2175945,9.45699872 37.2175945,8.68729345 C37.2175945,7.91758819 37.2746097,7.19420777 37.3886401,6.51715222 C37.5026705,5.84009666 37.6772796,5.25569081 37.9124673,4.76393467 C38.147655,4.27217852 38.439858,3.88376244 38.7890761,3.59868642 C39.1382942,3.31361039 39.548091,3.17107238 40.0184665,3.17107238 C40.4745881,3.17107238 40.877258,3.31361039 41.2264761,3.59868642 C41.5756942,3.88376244 41.8678972,4.27217852 42.1030849,4.76393467 C42.3382726,5.25569081 42.5164451,5.84009666 42.6376024,6.51715222 C42.7587597,7.19420777 42.8193384,7.91758819 42.8193384,8.68729345 C42.8193384,9.45699872 42.7623232,10.1803791 42.6482928,10.8574347 C42.5342624,11.5344902 42.3596533,12.1224595 42.1244656,12.6213426 C41.8892779,13.1202256 41.5970749,13.5122052 41.2478568,13.7972812 C40.8986387,14.0823572 40.4888419,14.2248952 40.0184665,14.2248952 Z M51.2412658,16.2774426 L51.1985044,4.64634081 L51.2626465,4.64634081 L54.234564,16.2774426 L56.24435,16.2774426 L59.2804097,4.64634081 L59.3445518,4.64634081 L59.3017904,16.2774426 L61.8033325,16.2774426 L61.8033325,1.13990571 L58.1899939,1.13990571 L55.3463605,12.2151093 L55.2608377,12.2151093 L52.3530623,1.13990571 L48.9107693,1.13990571 L48.9107693,16.2774426 L51.2412658,16.2774426 Z M66.9753932,16.2774426 L67.7450985,13.0703373 L71.721909,13.0703373 L72.4702336,16.2774426 L75.1428213,16.2774426 L71.4439599,1.13990571 L68.1727125,1.13990571 L64.409709,16.2774426 L66.9753932,16.2774426 Z M71.4011985,11.0605514 L68.065809,11.0605514 L69.712123,3.55592501 L69.7976458,3.55592501 L71.4011985,11.0605514 Z M81.1701101,16.2774426 L81.1701101,3.32073729 L84.0137434,3.32073729 L84.0137434,1.13990571 L75.8035539,1.13990571 L75.8035539,3.32073729 L78.6471873,3.32073729 L78.6471873,16.2774426 L81.1701101,16.2774426 Z M93.5474673,16.2774426 L93.5474673,13.9897075 L89.0147585,13.9897075 L89.0147585,9.52114082 L93.0129498,9.52114082 L93.0129498,7.42583204 L89.0147585,7.42583204 L89.0147585,3.4062601 L93.3336603,3.4062601 L93.3336603,1.13990571 L86.5559778,1.13990571 L86.5559778,16.2774426 L93.5474673,16.2774426 Z" id="AUTOMATE"></path>
        </g>
        <path d="M21.9664704,7.40000011 C22.9210761,7.40000011 23.4133335,7.8197137 23.6064663,8.6249056 C23.729185,9.13653352 23.4611571,9.51859976 22.8023825,9.77110433 L24.9090001,13.0240001 L31.8401141,13.3765405 C31.6903024,12.6888684 31.5096263,12.0931546 31.3891266,11.8256446 C31.2606302,11.5404087 31.203821,11.2476065 30.966107,10.7231905 C30.9201745,10.7233516 30.6909842,10.2931913 30.6366277,10.2874672 C29.6894798,10.1877253 29.5835265,9.46988959 29.6730747,8.61624649 C29.7626339,7.76249821 30.5618652,7.5440135 31.5090131,7.64375534 C32.4561727,7.74349856 32.9007713,8.21265037 33.0083337,9.03419298 C33.07668,9.55621032 32.7708541,9.90845446 32.0908561,10.0909254 L33.8050001,13.4770001 L39.1408963,13.7492491 C40.2355273,13.8242266 41.20089,14.4798424 41.6801338,15.4580446 L41.7642082,15.6451749 C44.6562732,22.860038 46.4197631,27.1626042 47.054678,28.5528734 C48.0070503,30.6382771 48.1808734,31.155584 46.7781919,33.4072144 L46.7781919,33.4072144 L41.7384422,41.1459417 C41.1207393,42.2684781 39.9511428,42.9736692 38.6722726,42.9945704 L38.6722726,42.9945704 L18.7825352,42.9995909 C17.5941426,43.0190115 16.5017436,42.3467478 15.9806766,41.2754521 L15.9806766,41.2754521 L9.78205847,29.6842981 C8.90134637,28.0599492 8.87548397,27.3179136 9.69325762,25.3943145 L9.69325762,25.3943145 L14.3652512,15.7934788 C15.2277672,13.8166083 17.2356142,12.5961062 19.3833271,12.7432252 L19.3833271,12.7432252 L22.8474575,12.9185248 C22.6400083,12.3132086 22.4215906,11.8033345 22.2842647,11.5685071 C22.1263459,11.2984874 22.039097,11.0134461 21.7472935,10.5171595 C21.7015225,10.5221266 21.4280722,10.1186193 21.3732883,10.1186193 C20.4186943,10.1186193 20.2380103,9.41632295 20.2380103,8.55860105 C20.2380103,7.70077346 21.0118764,7.40000011 21.9664704,7.40000011 Z" id="Combined-Shape" fill="#444444"></path>
        <path d="M22.7324022,9.95353605 C22.7192899,9.87827134 22.7236132,9.80113741 22.7450688,9.72773004 C22.8239298,9.45802104 23.1107232,9.30193416 23.3856423,9.37922377 L35.1130366,12.6532995 C37.8811273,13.3105434 39.0340762,13.7911195 39.3415068,17.41317 L40.7567824,32.6479963 C40.7777527,32.8391232 40.7616825,33.0323433 40.7094353,33.2176717 C40.4806021,34.0289914 39.6247382,34.5050411 38.7978095,34.2809629 L28.4575585,31.3182684 C26.9101507,30.8989439 25.7494946,29.6399561 25.4788712,28.0874843 L22.7324022,9.95353605 Z" id="Clip-985" fill="#FFFFFF" transform="translate(31.745348, 21.847896) scale(1, -1) rotate(-84.000000) translate(-31.745348, -21.847896) "></path>
        <g filter="url(#filter-1)" id="Group-983-Copy-11">
            <g transform="translate(16.755155, 28.523220) scale(1, -1) rotate(-83.000000) translate(-16.755155, -28.523220) translate(3.755155, 22.523220)">
                <mask id="mask-3" fill="white">
                    <use xlink:href="#path-2"></use>
                </mask>
                <use id="Clip-982" fill="#DECC7C" xlink:href="#path-2"></use>
            </g>
        </g>
        <g id="Group-989-Copy-11" transform="translate(32.972665, 36.491455) scale(1, -1) rotate(-83.000000) translate(-32.972665, -36.491455) translate(26.972665, 22.491455)">
            <mask id="mask-5" fill="white">
                <use xlink:href="#path-4"></use>
            </mask>
            <use id="Clip-988" fill="#BEB074" xlink:href="#path-4"></use>
        </g>
        <ellipse id="Oval-Copy-12" stroke="#444444" stroke-width="0.821528738" transform="translate(17.098146, 28.286414) rotate(-2.000000) translate(-17.098146, -28.286414) " cx="17.0981461" cy="28.2864141" rx="1.47901601" ry="2.31054643"></ellipse>
        <g id="Group-Copy-2" transform="translate(33.203642, 20.408612) rotate(-3.000000) translate(-33.203642, -20.408612) translate(27.203642, 17.908612)">
            <g id="Group-992-Copy-8" transform="translate(6.531834, 0.294650)">
                <mask id="mask-7" fill="white">
                    <use xlink:href="#path-6"></use>
                </mask>
                <g id="Clip-991" transform="translate(2.129518, 1.904804) scale(1, -1) rotate(-85.000000) translate(-2.129518, -1.904804) "></g>
                <polygon id="Fill-990" fill="#444444" mask="url(#mask-7)" transform="translate(2.148282, 2.117200) scale(1, -1) rotate(-85.000000) translate(-2.148282, -2.117200) " points="-6.60092275 -6.26077813 10.8834072 -6.24593087 10.8974877 10.4951784 -6.58684223 10.4803311"></polygon>
            </g>
            <g id="Group-995-Copy-8" transform="translate(0.006323, 0.000139)">
                <mask id="mask-9" fill="white">
                    <use xlink:href="#path-8"></use>
                </mask>
                <g id="Clip-994" transform="translate(2.048308, 1.878430) scale(1, -1) rotate(-85.000000) translate(-2.048308, -1.878430) "></g>
                <polygon id="Fill-993" fill="#444444" mask="url(#mask-9)" transform="translate(2.029982, 1.664892) scale(1, -1) rotate(-85.000000) translate(-2.029982, -1.664892) " points="-6.74343396 -6.49720789 10.8310416 -6.52635622 10.8033986 9.82699114 -6.77107701 9.85613948"></polygon>
            </g>
        </g>
    </g>
</svg>